HIERARCHY
ROOT SpineBase
{
  OFFSET 0.000000 0.000000 0.000000
  CHANNELS 6 Xposition Yposition Zposition Zrotation Xrotation Yrotation
  JOINT SpineMid
  {
    OFFSET -0.000000 33.364255 0.000000
    CHANNELS 3 Zrotation Xrotation Yrotation
    JOINT SpineShoulder
    {
      OFFSET -0.161198 25.048588 -0.885076
      CHANNELS 3 Zrotation Xrotation Yrotation
      JOINT Neck
      {
        OFFSET -0.109672 8.363335 -0.659621
        CHANNELS 3 Zrotation Xrotation Yrotation
        JOINT Head
        {
          OFFSET -2.366332 11.225301 3.434057
          CHANNELS 3 Zrotation Xrotation Yrotation
          End Site
          {
            OFFSET 0 0 0
          }
        }
      }
      JOINT ShoulderLeft
      {
        OFFSET -8.631913 -7.261893 -10.576167
        CHANNELS 3 Zrotation Xrotation Yrotation
        JOINT ElbowLeft
        {
          OFFSET -6.376137 -24.002417 -0.060114
          CHANNELS 3 Zrotation Xrotation Yrotation
          JOINT WristLeft
          {
            OFFSET -1.814761 -20.364597 5.832483
            CHANNELS 3 Zrotation Xrotation Yrotation
            JOINT HandLeft
            {
              OFFSET -0.119066 -7.023772 2.483930
              CHANNELS 3 Zrotation Xrotation Yrotation
              JOINT HandTipLeft
              {
                OFFSET -0.115467 -4.527730 1.168116
                CHANNELS 3 Zrotation Xrotation Yrotation
                End Site
                {
                  OFFSET 0 0 0
                }
              }
              JOINT ThumbLeft
              {
                OFFSET 2.647265 1.559888 -4.174029
                CHANNELS 3 Zrotation Xrotation Yrotation
                End Site
                {
                  OFFSET 0 0 0
                }
              }
            }
          }
        }
      }
      JOINT ShoulderRight
      {
        OFFSET 8.006657 -4.603995 -3.657140
        CHANNELS 3 Zrotation Xrotation Yrotation
        JOINT ElbowRight
        {
          OFFSET -19.917511 -13.501731 -9.349888
          CHANNELS 3 Zrotation Xrotation Yrotation
          JOINT WristRight
          {
            OFFSET -6.173190 -21.531267 2.939713
            CHANNELS 3 Zrotation Xrotation Yrotation
            JOINT HandRight
            {
              OFFSET 0.640437 -5.575170 2.412140
              CHANNELS 3 Zrotation Xrotation Yrotation
              JOINT HandTipRight
              {
                OFFSET -2.142516 -7.623397 2.321732
                CHANNELS 3 Zrotation Xrotation Yrotation
                End Site
                {
                  OFFSET 0 0 0
                }
              }
              JOINT ThumbRight
              {
                OFFSET 3.825405 0.776027 -0.339395
                CHANNELS 3 Zrotation Xrotation Yrotation
                End Site
                {
                  OFFSET 0 0 0
                }
              }
            }
          }
        }
      }
    }
  }
  JOINT HipLeft
  {
    OFFSET -4.747934 1.147063 -4.527471
    CHANNELS 3 Zrotation Xrotation Yrotation
    JOINT KneeLeft
    {
      OFFSET 3.122072 -27.118563 -5.563928
      CHANNELS 3 Zrotation Xrotation Yrotation
      JOINT AnkleLeft
      {
        OFFSET -0.579095 -29.491792 -2.813981
        CHANNELS 3 Zrotation Xrotation Yrotation
        JOINT FootLeft
        {
          OFFSET 2.840825 -1.662573 -10.787183
          CHANNELS 3 Zrotation Xrotation Yrotation
          End Site
          {
            OFFSET 0 0 0
          }
        }
      }
    }
  }
  JOINT HipRight
  {
    OFFSET 3.558234 2.892391 -2.328771
    CHANNELS 3 Zrotation Xrotation Yrotation
    JOINT KneeRight
    {
      OFFSET 8.622380 -30.798350 0.658753
      CHANNELS 3 Zrotation Xrotation Yrotation
      JOINT AnkleRight
      {
        OFFSET -5.678415 -27.599102 -5.956742
        CHANNELS 3 Zrotation Xrotation Yrotation
        JOINT FootRight
        {
          OFFSET -2.276184 -3.916861 -6.165617
          CHANNELS 3 Zrotation Xrotation Yrotation
          End Site
          {
            OFFSET 0 0 0
          }
        }
      }
    }
  }
}
MOTION
Frames: 12
Frame Time: 0.033333
34.861873 62.770223 253.320734 0.000000 0.000000 -14.826533 -0.000000 0.000000 14.826533 -0.000000 0.000000 0.000000 -0.000000 0.000000 0.000000 0.000000 0.000000 0.000000 -0.000000 0.000000 0.000000 -0.000000 0.000000 0.000000 -0.000000 0.000000 0.000000 -0.000000 0.000000 0.000000 0.000000 0.000000 0.000000 0.000000 0.000000 0.000000 -0.000000 0.000000 0.000000 -0.000000 0.000000 0.000000 -0.000000 0.000000 0.000000 -0.000000 0.000000 0.000000 0.000000 0.000000 0.000000 0.000000 0.000000 0.000000 -0.000000 0.000000 14.826533 -0.000000 0.000000 0.000000 -0.000000 0.000000 0.000000 0.000000 0.000000 0.000000 -0.000000 0.000000 14.826533 -0.000000 0.000000 0.000000 -0.000000 0.000000 0.000000 0.000000 0.000000 0.000000
34.763368 62.927609 253.194793 -0.134547 0.138170 -14.357457 0.164607 -0.100490 14.357764 -0.000000 0.000000 0.000000 -0.000000 0.000000 0.000000 0.000000 0.000000 0.000000 -0.000000 0.000000 0.000000 -1.128186 0.065805 -0.328108 6.304740 -1.372674 2.239272 -4.193370 0.470627 -1.520623 0.000000 0.000000 0.000000 0.000000 0.000000 0.000000 -0.000000 0.000000 0.000000 0.848846 -1.062255 0.428698 3.475947 0.807898 1.349811 -6.760919 0.657312 -2.603370 0.000000 0.000000 0.000000 0.000000 0.000000 0.000000 1.043402 -0.076244 14.160927 -0.858027 0.191468 0.199625 -0.195561 -3.689751 -6.393944 0.000000 0.000000 0.000000 0.164607 -0.100490 14.357764 8.046651 -6.084359 -0.059764 -7.574224 7.625074 -0.901952 0.000000 0.000000 0.000000
34.673884 63.085205 253.082231 -0.254823 0.256053 -13.900230 0.308874 -0.187335 13.901305 -0.000000 0.000000 0.000000 -0.000000 0.000000 0.000000 0.000000 0.000000 0.000000 -0.000000 0.000000 0.000000 -2.011237 0.062199 -0.579713 11.984360 -2.278672 4.328246 -8.077266 0.925912 -2.832155 0.000000 0.000000 0.000000 0.000000 0.000000 0.000000 0.666122 0.052614 -0.543699 0.882244 -1.983985 1.336840 5.409448 1.521583 1.981569 -11.109283 1.351761 -4.224183 0.000000 0.000000 0.000000 0.000000 0.000000 0.000000 1.964097 -0.160081 13.532916 -1.077860 -0.471451 0.344604 -1.887061 -8.485129 -15.858357 0.000000 0.000000 0.000000 -1.116880 -0.579369 13.849320 16.037312 -10.854041 0.543555 -13.239396 13.862193 -2.174190 0.000000 0.000000 0.000000
34.593419 63.243011 252.983048 -0.360625 0.353384 -13.438110 0.432881 -0.259893 13.440204 -0.000000 0.000000 0.000000 -0.000000 0.000000 0.000000 0.000000 0.000000 0.000000 -0.000000 0.000000 0.000000 -2.635912 -0.015445 -0.752463 16.696665 -2.719880 6.073704 -11.341963 1.205191 -3.866761 0.000000 0.000000 0.000000 0.000000 0.000000 0.000000 0.928579 0.069273 -0.754495 1.141986 -2.685455 1.837680 6.558968 2.069648 2.277064 -13.991612 1.998712 -5.270066 0.000000 0.000000 0.000000 0.000000 0.000000 0.000000 2.765942 -0.247585 12.923957 -1.574673 -0.602343 0.493187 -5.393814 -15.779153 -29.209539 0.000000 0.000000 0.000000 -1.567861 -0.844863 13.346822 21.595361 -14.297231 1.339234 -16.856831 18.604987 -4.252477 0.000000 0.000000 0.000000
34.521975 63.401026 252.897244 -0.451763 0.429912 -12.958249 0.536669 -0.317646 12.961432 -0.000000 0.000000 0.000000 -0.000000 0.000000 0.000000 0.000000 0.000000 0.000000 -0.000000 0.000000 0.000000 -2.994466 -0.169186 -0.844825 20.144940 -2.737905 7.312150 -13.721473 1.153247 -4.586703 0.000000 0.000000 0.000000 0.000000 0.000000 0.000000 1.151964 0.080875 -0.931210 1.261086 -3.197126 2.223353 7.275811 2.431370 2.412380 -15.875558 2.590069 -5.941016 0.000000 0.000000 0.000000 0.000000 0.000000 0.000000 3.452292 -0.335895 12.319543 -2.045975 -0.667091 0.625612 -11.799353 -23.243150 -44.991262 0.000000 0.000000 0.000000 -1.932634 -1.092085 12.818744 25.593211 -16.569824 2.062258 -18.500015 21.876263 -7.252636 0.000000 0.000000 0.000000
34.459551 63.559251 252.824820 -0.528052 0.485402 -12.449351 0.620289 -0.360132 12.453537 -0.000000 0.000000 0.000000 -0.000000 0.000000 0.000000 0.000000 0.000000 0.000000 -0.000000 0.000000 0.000000 -3.084528 -0.398419 -0.855932 22.093004 -2.381411 7.926200 -14.994018 0.635123 -4.967485 0.000000 0.000000 0.000000 0.000000 0.000000 0.000000 1.340563 0.088088 -1.077340 1.230118 -3.522036 2.492713 7.733486 2.597929 2.473790 -17.006098 3.137604 -6.340920 0.000000 0.000000 0.000000 0.000000 0.000000 0.000000 4.025980 -0.422796 11.706905 -2.493743 -0.667433 0.741907 -19.261948 -28.442077 -58.638859 0.000000 0.000000 0.000000 -2.204220 -1.319400 12.255585 28.143990 -17.852641 2.557157 -18.408083 23.709978 -10.981304 0.000000 0.000000 0.000000
34.433410 63.585843 252.784061 -0.554840 0.513808 -12.520761 0.653049 -0.381277 12.525422 -0.000000 0.000000 0.000000 -0.000000 0.000000 0.000000 0.000000 0.000000 0.000000 -0.000000 0.000000 0.000000 -2.555932 -0.896449 -0.669421 19.222113 -0.257594 6.473766 -12.141455 -2.179279 -4.192102 0.000000 0.000000 0.000000 0.000000 0.000000 0.000000 1.190941 0.258056 -1.224938 0.880384 -3.453181 2.482281 8.643887 2.835403 2.809431 -18.290162 2.438569 -6.786229 0.000000 0.000000 0.000000 0.000000 0.000000 0.000000 4.295195 -0.569150 11.723671 -2.834121 -0.498127 0.821645 -17.026780 -27.693407 -52.677926 0.000000 0.000000 0.000000 -2.368324 -1.468890 12.292916 25.769705 -15.772546 1.811977 -12.336758 6.083859 -9.176247 0.000000 0.000000 0.000000
34.400499 63.703032 252.749213 -0.589570 0.511089 -11.892722 0.682254 -0.378592 11.897606 -0.000000 0.000000 0.000000 -0.659100 -0.615787 0.068477 0.000000 0.000000 0.000000 -0.000000 0.000000 0.000000 -1.842628 -1.541401 -0.413016 17.670138 2.271490 5.474763 -11.856645 -4.133975 -4.162286 0.000000 0.000000 0.000000 0.000000 0.000000 0.000000 1.295948 0.220331 -1.244049 0.754638 -3.360539 2.479620 8.481252 2.211340 2.753965 -17.362021 3.110924 -6.392495 0.000000 0.000000 0.000000 0.000000 0.000000 0.000000 4.616458 -0.606962 11.033570 -3.252124 -0.401066 0.902834 -29.198457 -33.869524 -70.075822 0.000000 0.000000 0.000000 -2.489089 -1.664425 11.597363 25.819332 -15.255199 1.655071 -2.818756 5.896539 -30.742182 0.000000 0.000000 0.000000
34.283113 63.346394 252.736203 -0.785183 0.467527 -10.529810 0.857411 -0.316122 10.535379 -0.000000 0.000000 0.000000 -0.000000 0.000000 0.000000 0.000000 0.000000 0.000000 0.752320 4.234619 -1.156990 -1.381790 -3.286164 0.771419 15.473893 -0.691068 5.769912 -11.210813 -5.583805 -3.768829 0.000000 0.000000 0.000000 0.000000 0.000000 0.000000 2.180177 -0.431727 -0.892206 0.085122 -2.833736 2.198511 7.816147 1.656095 2.494660 -16.360491 4.548731 -6.103754 0.000000 0.000000 0.000000 0.000000 0.000000 0.000000 5.463277 -0.240131 9.540148 -4.211992 -0.582226 1.039116 -11.166422 -23.464161 -42.118882 0.000000 0.000000 0.000000 -2.092701 -1.746581 10.169144 25.302056 -15.000905 1.646967 -11.237516 6.424055 -11.202441 0.000000 0.000000 0.000000
34.240106 63.821321 252.711015 -0.804816 0.449937 -8.786087 0.864111 -0.321682 8.791673 -0.000000 0.000000 0.000000 -0.000000 0.000000 0.000000 0.000000 0.000000 0.000000 0.805386 3.029310 -0.829703 -0.762529 -3.040371 0.788171 12.450869 1.067252 4.306226 -8.407973 -5.764154 -2.941204 0.000000 0.000000 0.000000 0.000000 0.000000 0.000000 2.545710 -0.629448 -0.851781 -0.739066 -2.343310 1.998860 6.073431 0.920478 1.809650 -12.915385 6.185837 -5.220032 0.000000 0.000000 0.000000 0.000000 0.000000 0.000000 5.490380 -0.232043 7.804938 -4.308226 -0.602421 1.027866 -13.726084 -26.839266 -42.249027 0.000000 0.000000 0.000000 -2.119823 -1.982667 8.327731 24.803245 -14.561747 1.606636 -13.819066 12.191706 -8.667259 0.000000 0.000000 0.000000
34.387725 64.864986 252.690578 -0.695389 0.360399 -22.917437 0.780838 -0.061145 22.920041 -0.843470 0.069594 -0.065111 0.843549 -0.068628 0.066128 0.000000 0.000000 0.000000 0.967143 -2.462055 0.704694 -0.729621 -1.202081 -0.478132 17.271472 21.969097 1.710865 -15.417419 -22.894980 -6.507568 0.000000 0.000000 0.000000 0.000000 0.000000 0.000000 2.931488 -0.364621 -0.961015 -1.411509 -1.909906 1.762330 5.651974 -0.254313 1.612279 -10.330381 6.435540 -4.276944 0.000000 0.000000 0.000000 0.000000 0.000000 0.000000 5.582577 -2.422793 21.835148 -3.265275 2.840986 1.288334 -37.529048 -43.041168 -63.878085 0.000000 0.000000 0.000000 -2.622017 -0.811092 22.999236 24.191582 -15.527699 1.543133 -13.520821 19.715220 -12.318827 0.000000 0.000000 0.000000
34.451804 66.211382 252.472159 -0.434679 0.603608 -16.742970 0.590155 -0.452776 16.747592 -0.000000 0.000000 0.000000 -1.474232 -2.029571 -0.003001 0.000000 0.000000 0.000000 -0.942665 -13.397752 3.459404 -0.259627 3.536582 -3.010827 11.570483 23.110552 -0.298851 -2.379484 -18.040720 -0.162779 0.000000 0.000000 0.000000 0.000000 0.000000 0.000000 2.151078 0.038508 -1.590907 -2.145255 -2.416276 2.242764 8.089191 -1.410934 2.285843 -11.392732 7.033640 -4.295864 0.000000 0.000000 0.000000 0.000000 0.000000 0.000000 4.241155 -2.670394 15.892811 -2.125490 2.041346 0.947154 -28.399578 -45.526998 -38.420145 0.000000 0.000000 0.000000 -2.735259 -1.890967 16.482996 23.655508 -14.956178 1.698233 -11.398777 29.189944 -18.643740 0.000000 0.000000 0.000000
